# xmcd
#
# Track frame offsets:
#	150
#	15813
#	30697
#	47220
#	60708
#	77242
#	97193
#	114902
#	131808
#	143004
#	160986
#	176556
#	192101
#	206559
#	223368
#	246619
#	265898
#	280668
#	298608
#	315603
#
# Disc length: 4388 seconds
#
# Revision: 1
# Processed by: cddbd v1.5.2PL0 Copyright (c) Steve Scherf et al.
# Submitted via: audiograbber 1.83.01
#
DISCID=2f112214
DTITLE=Various Artist - Weihnachten Heute
DYEAR=2013
DGENRE=Weihnachtschlager
TTITLE0=Merry Christmas - Nik P.
TTITLE1=Ich wünsch dir frohe Weihnacht - Fantasy
TTITLE2=Das Lichtermeer auf dem Weihnachtsmarkt - Nicole
TTITLE3=Aba Heidschi Bumbeidschi - Vanessa Neigert
TTITLE4=Ein stiller Traum - Christian Lais
TTITLE5=Ave Maria - Michael Hirte
TTITLE6=Die Spuren sind längst geschmolzen - Andrea Berg
TTITLE7=Weihnachten war damals spektakulär - Puhdys
TTITLE8=Feliz Navidad - Schwesterherz
TTITLE9=Nächstes Jahr wird alles anders - Udo Jürgens
TTITLE10=Weihnachten mit dir - Frank Schöbel
TTITLE11=Die Zeit der Träumer - Rico Seith
TTITLE12=Ich denk an Weihnachten - Michael Wendler
TTITLE13=Ein Stern der für dich scheint - Simone
TTITLE14=Weihnachten daham - Rainhard Fendrich
TTITLE15=Weihnachten ist mir doch egal - Uschi Blum
TTITLE16=Little City Drummerboy - City
TTITLE17=Schene Weihnacht - Seer
TTITLE18=Frohes neues Jahr, ihr Lieben - Kristina Bach
TTITLE19=Weihnachtszeit ist wunderbar - Wolfgang Petry
EXTD=
EXTT0=
EXTT1=
EXTT2=
EXTT3=
EXTT4=
EXTT5=
EXTT6=
EXTT7=
EXTT8=
EXTT9=
EXTT10=
EXTT11=
EXTT12=
EXTT13=
EXTT14=
EXTT15=
EXTT16=
EXTT17=
EXTT18=
EXTT19=
PLAYORDER=
